<svg xmlns="http://www.w3.org/2000/svg" preserveAspectRatio="xMidYMid slice" width="100%" height="1786" viewBox="0 0 1314 1786">
  <defs>
    <style>
      .cls-1 {
        fill-rule: evenodd;
        opacity: 0.06;
      }
    </style>
  </defs>
  <path id="Прямоугольник_689" data-name="Прямоугольник 689" class="cls-1" d="M-64,1276s92.978,157.16,242,210c110.818,39.29,250.689,3.2,396,10,98.1,4.59,198.922,50.77,294,69,151.69,29.08,324.14,61.14,431,3,135.18-73.54,180-292,180-292V3062s-0.36-171.03-104-177c-52.81-3.04-123.74,66.77-210,105-76.51,33.91-167.226,37.36-236,27-174.664-26.31-364.162-108-532-108-121.881,0-227.374,73.05-309,109-91.5,40.3-152,44-152,44V1276Z" transform="translate(0 -1276)"/>
</svg>
